<svg width="26" height="26" viewBox="0 0 26 26" fill="none" xmlns="http://www.w3.org/2000/svg">
<path d="M23.1418 13.0039C23.1418 7.40527 18.5867 2.84766 12.9855 2.84766C12.5031 2.84766 12.0258 2.88066 11.5611 2.94668C7.50879 4.48789 4.62695 8.4082 4.62695 13.0014C4.62695 17.5945 7.50879 21.5174 11.5611 23.0586C12.0283 23.1246 12.5057 23.1576 12.9855 23.1576C18.5842 23.1602 23.1418 18.6051 23.1418 13.0039Z" fill="#DADADA" fill-opacity="0.3"/>
<path d="M4.69975 20.448C4.52709 20.448 4.35697 20.3744 4.23764 20.2296C3.89137 19.812 3.57571 19.3699 3.2931 18.9068C3.12045 18.6249 3.20932 18.2568 3.49369 18.0841C3.77553 17.9115 4.14369 18.0003 4.31635 18.2847C4.56771 18.6986 4.85209 19.0947 5.15932 19.4679C5.37006 19.7218 5.33451 20.1001 5.0806 20.3109C4.96889 20.4048 4.83178 20.448 4.69975 20.448Z" fill="white"/>
<path d="M12.9895 24.3553C10.6307 24.3553 8.36836 23.6393 6.44629 22.2809C6.17715 22.0904 6.11113 21.7172 6.30156 21.4455C6.49199 21.1738 6.86523 21.1104 7.13691 21.3008C8.85586 22.5145 10.877 23.1543 12.9895 23.1543C18.5881 23.1543 23.1457 18.5992 23.1457 12.998C23.1457 7.39688 18.5906 2.8418 12.9895 2.8418C7.38828 2.8418 2.8332 7.39688 2.8332 12.998C2.8332 13.9705 2.97031 14.9303 3.23945 15.8545C3.3334 16.1719 3.15059 16.5045 2.8332 16.5984C2.51582 16.6924 2.1832 16.5096 2.08926 16.1922C1.78711 15.1588 1.63477 14.0848 1.63477 13.0006C1.6373 6.7418 6.73066 1.64844 12.9895 1.64844C19.2482 1.64844 24.3441 6.7418 24.3441 13.0031C24.3441 19.2645 19.2508 24.3553 12.9895 24.3553Z" fill="white"/>
<path d="M13.0152 18.4561C12.6852 18.4561 12.416 18.1869 12.416 17.8568V8.15C12.416 7.81992 12.6852 7.55078 13.0152 7.55078C13.3453 7.55078 13.6145 7.81992 13.6145 8.15V17.8568C13.6145 18.1869 13.3453 18.4561 13.0152 18.4561Z" fill="white"/>
<path d="M17.8367 13.632H8.13242C7.80234 13.632 7.5332 13.3629 7.5332 13.0328C7.5332 12.7027 7.80234 12.4336 8.13242 12.4336H17.8393C18.1693 12.4336 18.4385 12.7027 18.4385 13.0328C18.4359 13.3629 18.1693 13.632 17.8367 13.632Z" fill="white"/>
</svg>
